%TF.GenerationSoftware,KiCad,Pcbnew,9.0.3-9.0.3-0~ubuntu24.04.1*%
%TF.CreationDate,2025-09-03T17:17:06-03:00*%
%TF.ProjectId,CargadorDeBaterias_rev2,43617267-6164-46f7-9244-654261746572,rev?*%
%TF.SameCoordinates,Original*%
%TF.FileFunction,Soldermask,Top*%
%TF.FilePolarity,Negative*%
%FSLAX46Y46*%
G04 Gerber Fmt 4.6, Leading zero omitted, Abs format (unit mm)*
G04 Created by KiCad (PCBNEW 9.0.3-9.0.3-0~ubuntu24.04.1) date 2025-09-03 17:17:06*
%MOMM*%
%LPD*%
G01*
G04 APERTURE LIST*
G04 Aperture macros list*
%AMRoundRect*
0 Rectangle with rounded corners*
0 $1 Rounding radius*
0 $2 $3 $4 $5 $6 $7 $8 $9 X,Y pos of 4 corners*
0 Add a 4 corners polygon primitive as box body*
4,1,4,$2,$3,$4,$5,$6,$7,$8,$9,$2,$3,0*
0 Add four circle primitives for the rounded corners*
1,1,$1+$1,$2,$3*
1,1,$1+$1,$4,$5*
1,1,$1+$1,$6,$7*
1,1,$1+$1,$8,$9*
0 Add four rect primitives between the rounded corners*
20,1,$1+$1,$2,$3,$4,$5,0*
20,1,$1+$1,$4,$5,$6,$7,0*
20,1,$1+$1,$6,$7,$8,$9,0*
20,1,$1+$1,$8,$9,$2,$3,0*%
G04 Aperture macros list end*
%ADD10C,1.600000*%
%ADD11R,1.800000X1.800000*%
%ADD12C,1.800000*%
%ADD13RoundRect,0.237500X0.300000X0.237500X-0.300000X0.237500X-0.300000X-0.237500X0.300000X-0.237500X0*%
%ADD14RoundRect,0.237500X0.237500X-0.300000X0.237500X0.300000X-0.237500X0.300000X-0.237500X-0.300000X0*%
%ADD15R,2.000000X1.905000*%
%ADD16O,2.000000X1.905000*%
%ADD17RoundRect,0.250000X0.550000X-0.550000X0.550000X0.550000X-0.550000X0.550000X-0.550000X-0.550000X0*%
%ADD18C,6.000000*%
%ADD19RoundRect,0.075000X0.521491X-0.415425X-0.415425X0.521491X-0.521491X0.415425X0.415425X-0.521491X0*%
%ADD20RoundRect,0.075000X0.521491X0.415425X0.415425X0.521491X-0.521491X-0.415425X-0.415425X-0.521491X0*%
%ADD21R,3.000000X3.000000*%
%ADD22C,3.000000*%
%ADD23RoundRect,0.375000X0.625000X0.375000X-0.625000X0.375000X-0.625000X-0.375000X0.625000X-0.375000X0*%
%ADD24RoundRect,0.500000X0.500000X1.400000X-0.500000X1.400000X-0.500000X-1.400000X0.500000X-1.400000X0*%
%ADD25RoundRect,0.250000X0.550000X0.550000X-0.550000X0.550000X-0.550000X-0.550000X0.550000X-0.550000X0*%
%ADD26R,1.700000X1.700000*%
%ADD27C,1.700000*%
%ADD28RoundRect,0.250000X-0.550000X-0.550000X0.550000X-0.550000X0.550000X0.550000X-0.550000X0.550000X0*%
%ADD29R,1.905000X2.000000*%
%ADD30O,1.905000X2.000000*%
%ADD31R,2.000000X1.600000*%
%ADD32R,1.800000X1.710000*%
%ADD33O,1.800000X1.710000*%
%ADD34R,3.600000X2.700000*%
%ADD35RoundRect,0.250000X-0.550000X0.550000X-0.550000X-0.550000X0.550000X-0.550000X0.550000X0.550000X0*%
%ADD36C,1.905000*%
%ADD37C,2.600000*%
%ADD38RoundRect,0.102000X0.300000X-0.750000X0.300000X0.750000X-0.300000X0.750000X-0.300000X-0.750000X0*%
%ADD39R,1.500000X1.500000*%
%ADD40C,1.500000*%
G04 APERTURE END LIST*
D10*
%TO.C,R30*%
X140700000Y-132600000D03*
X150860000Y-132600000D03*
%TD*%
D11*
%TO.C,D2*%
X150860000Y-139500000D03*
D12*
X150860000Y-136960000D03*
%TD*%
D13*
%TO.C,C16*%
X110012500Y-128950000D03*
X108287500Y-128950000D03*
%TD*%
D14*
%TO.C,C15*%
X147532500Y-121300000D03*
X147532500Y-119575000D03*
%TD*%
D10*
%TO.C,R31*%
X157770000Y-127950000D03*
X167930000Y-127950000D03*
%TD*%
D15*
%TO.C,Q2*%
X102175000Y-109780000D03*
D16*
X102175000Y-107240000D03*
X102175000Y-104700000D03*
%TD*%
D10*
%TO.C,R19*%
X161115000Y-75325000D03*
X150955000Y-75325000D03*
%TD*%
%TO.C,R5*%
X100395000Y-98550000D03*
X110555000Y-98550000D03*
%TD*%
%TO.C,R8*%
X130825000Y-108800000D03*
X130825000Y-98640000D03*
%TD*%
D17*
%TO.C,U4*%
X153830000Y-71190000D03*
D10*
X156370000Y-71190000D03*
X158910000Y-71190000D03*
X161450000Y-71190000D03*
X161450000Y-63570000D03*
X158910000Y-63570000D03*
X156370000Y-63570000D03*
X153830000Y-63570000D03*
%TD*%
D18*
%TO.C,H2*%
X96100000Y-49300000D03*
%TD*%
D19*
%TO.C,U8*%
X120998788Y-126387876D03*
X121352342Y-126034322D03*
X121705895Y-125680769D03*
X122059449Y-125327215D03*
X122413002Y-124973662D03*
X122766555Y-124620109D03*
X123120109Y-124266555D03*
X123473662Y-123913002D03*
X123827215Y-123559449D03*
X124180769Y-123205895D03*
X124534322Y-122852342D03*
X124887876Y-122498788D03*
D20*
X124887876Y-120501212D03*
X124534322Y-120147658D03*
X124180769Y-119794105D03*
X123827215Y-119440551D03*
X123473662Y-119086998D03*
X123120109Y-118733445D03*
X122766555Y-118379891D03*
X122413002Y-118026338D03*
X122059449Y-117672785D03*
X121705895Y-117319231D03*
X121352342Y-116965678D03*
X120998788Y-116612124D03*
D19*
X119001212Y-116612124D03*
X118647658Y-116965678D03*
X118294105Y-117319231D03*
X117940551Y-117672785D03*
X117586998Y-118026338D03*
X117233445Y-118379891D03*
X116879891Y-118733445D03*
X116526338Y-119086998D03*
X116172785Y-119440551D03*
X115819231Y-119794105D03*
X115465678Y-120147658D03*
X115112124Y-120501212D03*
D20*
X115112124Y-122498788D03*
X115465678Y-122852342D03*
X115819231Y-123205895D03*
X116172785Y-123559449D03*
X116526338Y-123913002D03*
X116879891Y-124266555D03*
X117233445Y-124620109D03*
X117586998Y-124973662D03*
X117940551Y-125327215D03*
X118294105Y-125680769D03*
X118647658Y-126034322D03*
X119001212Y-126387876D03*
%TD*%
D21*
%TO.C,J3*%
X179340000Y-138000000D03*
D22*
X184420000Y-138000000D03*
X189500000Y-138000000D03*
%TD*%
D23*
%TO.C,U9*%
X181250000Y-105875000D03*
X181250000Y-103575000D03*
D24*
X174950000Y-103575000D03*
D23*
X181250000Y-101275000D03*
%TD*%
D21*
%TO.C,J2*%
X98100000Y-67220000D03*
D22*
X98100000Y-72300000D03*
%TD*%
D25*
%TO.C,U5*%
X108000000Y-88500000D03*
D10*
X108000000Y-85960000D03*
X108000000Y-83420000D03*
X108000000Y-80880000D03*
X100380000Y-80880000D03*
X100380000Y-83420000D03*
X100380000Y-85960000D03*
X100380000Y-88500000D03*
%TD*%
D26*
%TO.C,J4*%
X110265000Y-132975000D03*
D27*
X107725000Y-132975000D03*
X105185000Y-132975000D03*
X102645000Y-132975000D03*
%TD*%
D10*
%TO.C,C8*%
X130750000Y-95750000D03*
X130750000Y-90750000D03*
%TD*%
D28*
%TO.C,U7*%
X191900000Y-102330000D03*
D10*
X191900000Y-104870000D03*
X191900000Y-107410000D03*
X191900000Y-109950000D03*
X199520000Y-109950000D03*
X199520000Y-107410000D03*
X199520000Y-104870000D03*
X199520000Y-102330000D03*
%TD*%
D29*
%TO.C,Q1*%
X113645000Y-51400000D03*
D30*
X116185000Y-51400000D03*
X118725000Y-51400000D03*
%TD*%
D10*
%TO.C,C13*%
X175000000Y-96225000D03*
X170000000Y-96225000D03*
%TD*%
D31*
%TO.C,SW1*%
X156532500Y-121300000D03*
X151132500Y-121300000D03*
%TD*%
D32*
%TO.C,Q5*%
X202020000Y-115270000D03*
D33*
X202020000Y-117550000D03*
X202020000Y-119830000D03*
%TD*%
D10*
%TO.C,R26*%
X166705000Y-114325000D03*
X156545000Y-114325000D03*
%TD*%
D21*
%TO.C,J1*%
X184560000Y-51275000D03*
D22*
X189640000Y-51275000D03*
%TD*%
D10*
%TO.C,C3*%
X101625000Y-54950000D03*
X101625000Y-59950000D03*
%TD*%
D34*
%TO.C,L2*%
X201975000Y-68325000D03*
X201975000Y-76625000D03*
%TD*%
D10*
%TO.C,R7*%
X137575000Y-108805000D03*
X137575000Y-98645000D03*
%TD*%
D18*
%TO.C,H3*%
X96100000Y-138800000D03*
%TD*%
D10*
%TO.C,R10*%
X142805000Y-64595000D03*
X142805000Y-74755000D03*
%TD*%
D11*
%TO.C,D9*%
X177750000Y-117775000D03*
D12*
X175210000Y-117775000D03*
%TD*%
D17*
%TO.C,C1*%
X173150000Y-51069888D03*
D10*
X173150000Y-48569888D03*
%TD*%
%TO.C,R20*%
X150975000Y-80475000D03*
X161135000Y-80475000D03*
%TD*%
%TO.C,C14*%
X175100000Y-112125000D03*
X180100000Y-112125000D03*
%TD*%
%TO.C,R32*%
X154250000Y-132675000D03*
X164410000Y-132675000D03*
%TD*%
%TO.C,C6*%
X198450000Y-63700000D03*
X193450000Y-63700000D03*
%TD*%
D18*
%TO.C,H1*%
X205225000Y-49025000D03*
%TD*%
D27*
%TO.C,Y1*%
X122500000Y-131000000D03*
X117500000Y-131000000D03*
%TD*%
D10*
%TO.C,R3*%
X168175000Y-68695000D03*
X168175000Y-78855000D03*
%TD*%
%TO.C,R22*%
X195520000Y-128410000D03*
X195520000Y-118250000D03*
%TD*%
%TO.C,C2*%
X165250000Y-51375000D03*
X165250000Y-56375000D03*
%TD*%
%TO.C,R25*%
X204880000Y-92075000D03*
X194720000Y-92075000D03*
%TD*%
D11*
%TO.C,D7*%
X160650000Y-139465000D03*
D12*
X160650000Y-136925000D03*
%TD*%
D10*
%TO.C,C9*%
X148455000Y-69325000D03*
X148455000Y-64325000D03*
%TD*%
%TO.C,R29*%
X132900000Y-137980000D03*
X132900000Y-127820000D03*
%TD*%
D18*
%TO.C,H4*%
X205500000Y-139500000D03*
%TD*%
D15*
%TO.C,U3*%
X202275000Y-58500000D03*
D16*
X202275000Y-61040000D03*
X202275000Y-63580000D03*
%TD*%
D10*
%TO.C,R24*%
X205000000Y-96550000D03*
X194840000Y-96550000D03*
%TD*%
%TO.C,R21*%
X189225000Y-86650000D03*
X179065000Y-86650000D03*
%TD*%
D29*
%TO.C,D6*%
X130095000Y-51425000D03*
D30*
X132635000Y-51425000D03*
X135175000Y-51425000D03*
%TD*%
D32*
%TO.C,Q4*%
X202020000Y-127270000D03*
D33*
X202020000Y-129550000D03*
X202020000Y-131830000D03*
%TD*%
D10*
%TO.C,R1*%
X187380000Y-59475000D03*
X177220000Y-59475000D03*
%TD*%
D35*
%TO.C,C4*%
X106425000Y-54694888D03*
D10*
X106425000Y-57194888D03*
%TD*%
%TO.C,R27*%
X105475000Y-123725000D03*
X95315000Y-123725000D03*
%TD*%
%TO.C,R2*%
X173125000Y-68645000D03*
X173125000Y-78805000D03*
%TD*%
%TO.C,R4*%
X107600000Y-104890000D03*
X107600000Y-115050000D03*
%TD*%
D36*
%TO.C,RV1*%
X197500000Y-81650000D03*
X200085000Y-84211800D03*
X197500000Y-86704600D03*
%TD*%
D37*
%TO.C,L1*%
X146750000Y-52300000D03*
X150250000Y-52300000D03*
%TD*%
D35*
%TO.C,U1*%
X131020000Y-65945000D03*
D10*
X128480000Y-65945000D03*
X125940000Y-65945000D03*
X123400000Y-65945000D03*
X120860000Y-65945000D03*
X118320000Y-65945000D03*
X115780000Y-65945000D03*
X115780000Y-73565000D03*
X118320000Y-73565000D03*
X120860000Y-73565000D03*
X123400000Y-73565000D03*
X125940000Y-73565000D03*
X128480000Y-73565000D03*
X131020000Y-73565000D03*
%TD*%
%TO.C,R11*%
X142150000Y-108730000D03*
X142150000Y-98570000D03*
%TD*%
%TO.C,C5*%
X198500000Y-58650000D03*
X193500000Y-58650000D03*
%TD*%
D38*
%TO.C,Y2*%
X117500000Y-138150000D03*
X123000000Y-138150000D03*
X123000000Y-135000000D03*
X117500000Y-135000000D03*
%TD*%
D10*
%TO.C,R28*%
X105480000Y-119050000D03*
X95320000Y-119050000D03*
%TD*%
D11*
%TO.C,D8*%
X170075000Y-139465000D03*
D12*
X170075000Y-136925000D03*
%TD*%
D39*
%TO.C,Q3*%
X147925000Y-90950000D03*
D40*
X147925000Y-93490000D03*
X147925000Y-96030000D03*
%TD*%
D10*
%TO.C,R9*%
X123030000Y-59600000D03*
X112870000Y-59600000D03*
%TD*%
%TO.C,C7*%
X137550000Y-95750000D03*
X137550000Y-90750000D03*
%TD*%
%TO.C,C12*%
X189000000Y-97000000D03*
X189000000Y-92000000D03*
%TD*%
%TO.C,R23*%
X190520000Y-128330000D03*
X190520000Y-118170000D03*
%TD*%
%TO.C,R33*%
X171380000Y-122425000D03*
X161220000Y-122425000D03*
%TD*%
%TO.C,R6*%
X113545000Y-98525000D03*
X123705000Y-98525000D03*
%TD*%
M02*
