%TF.GenerationSoftware,KiCad,Pcbnew,9.0.3-9.0.3-0~ubuntu24.04.1*%
%TF.CreationDate,2025-09-03T17:17:06-03:00*%
%TF.ProjectId,CargadorDeBaterias_rev2,43617267-6164-46f7-9244-654261746572,rev?*%
%TF.SameCoordinates,Original*%
%TF.FileFunction,Paste,Top*%
%TF.FilePolarity,Positive*%
%FSLAX46Y46*%
G04 Gerber Fmt 4.6, Leading zero omitted, Abs format (unit mm)*
G04 Created by KiCad (PCBNEW 9.0.3-9.0.3-0~ubuntu24.04.1) date 2025-09-03 17:17:06*
%MOMM*%
%LPD*%
G01*
G04 APERTURE LIST*
G04 Aperture macros list*
%AMRoundRect*
0 Rectangle with rounded corners*
0 $1 Rounding radius*
0 $2 $3 $4 $5 $6 $7 $8 $9 X,Y pos of 4 corners*
0 Add a 4 corners polygon primitive as box body*
4,1,4,$2,$3,$4,$5,$6,$7,$8,$9,$2,$3,0*
0 Add four circle primitives for the rounded corners*
1,1,$1+$1,$2,$3*
1,1,$1+$1,$4,$5*
1,1,$1+$1,$6,$7*
1,1,$1+$1,$8,$9*
0 Add four rect primitives between the rounded corners*
20,1,$1+$1,$2,$3,$4,$5,0*
20,1,$1+$1,$4,$5,$6,$7,0*
20,1,$1+$1,$6,$7,$8,$9,0*
20,1,$1+$1,$8,$9,$2,$3,0*%
G04 Aperture macros list end*
%ADD10RoundRect,0.237500X0.300000X0.237500X-0.300000X0.237500X-0.300000X-0.237500X0.300000X-0.237500X0*%
%ADD11RoundRect,0.237500X0.237500X-0.300000X0.237500X0.300000X-0.237500X0.300000X-0.237500X-0.300000X0*%
%ADD12RoundRect,0.075000X0.521491X-0.415425X-0.415425X0.521491X-0.521491X0.415425X0.415425X-0.521491X0*%
%ADD13RoundRect,0.075000X0.521491X0.415425X0.415425X0.521491X-0.521491X-0.415425X-0.415425X-0.521491X0*%
%ADD14RoundRect,0.375000X0.625000X0.375000X-0.625000X0.375000X-0.625000X-0.375000X0.625000X-0.375000X0*%
%ADD15RoundRect,0.500000X0.500000X1.400000X-0.500000X1.400000X-0.500000X-1.400000X0.500000X-1.400000X0*%
%ADD16R,2.000000X1.600000*%
%ADD17R,3.600000X2.700000*%
%ADD18R,0.600000X1.500000*%
G04 APERTURE END LIST*
D10*
%TO.C,C16*%
X110012500Y-128950000D03*
X108287500Y-128950000D03*
%TD*%
D11*
%TO.C,C15*%
X147532500Y-121300000D03*
X147532500Y-119575000D03*
%TD*%
D12*
%TO.C,U8*%
X120998788Y-126387876D03*
X121352342Y-126034322D03*
X121705895Y-125680769D03*
X122059449Y-125327215D03*
X122413002Y-124973662D03*
X122766555Y-124620109D03*
X123120109Y-124266555D03*
X123473662Y-123913002D03*
X123827215Y-123559449D03*
X124180769Y-123205895D03*
X124534322Y-122852342D03*
X124887876Y-122498788D03*
D13*
X124887876Y-120501212D03*
X124534322Y-120147658D03*
X124180769Y-119794105D03*
X123827215Y-119440551D03*
X123473662Y-119086998D03*
X123120109Y-118733445D03*
X122766555Y-118379891D03*
X122413002Y-118026338D03*
X122059449Y-117672785D03*
X121705895Y-117319231D03*
X121352342Y-116965678D03*
X120998788Y-116612124D03*
D12*
X119001212Y-116612124D03*
X118647658Y-116965678D03*
X118294105Y-117319231D03*
X117940551Y-117672785D03*
X117586998Y-118026338D03*
X117233445Y-118379891D03*
X116879891Y-118733445D03*
X116526338Y-119086998D03*
X116172785Y-119440551D03*
X115819231Y-119794105D03*
X115465678Y-120147658D03*
X115112124Y-120501212D03*
D13*
X115112124Y-122498788D03*
X115465678Y-122852342D03*
X115819231Y-123205895D03*
X116172785Y-123559449D03*
X116526338Y-123913002D03*
X116879891Y-124266555D03*
X117233445Y-124620109D03*
X117586998Y-124973662D03*
X117940551Y-125327215D03*
X118294105Y-125680769D03*
X118647658Y-126034322D03*
X119001212Y-126387876D03*
%TD*%
D14*
%TO.C,U9*%
X181250000Y-105875000D03*
X181250000Y-103575000D03*
D15*
X174950000Y-103575000D03*
D14*
X181250000Y-101275000D03*
%TD*%
D16*
%TO.C,SW1*%
X156532500Y-121300000D03*
X151132500Y-121300000D03*
%TD*%
D17*
%TO.C,L2*%
X201975000Y-68325000D03*
X201975000Y-76625000D03*
%TD*%
D18*
%TO.C,Y2*%
X117500000Y-138150000D03*
X123000000Y-138150000D03*
X123000000Y-135000000D03*
X117500000Y-135000000D03*
%TD*%
M02*
