M48
; DRILL file {KiCad 9.0.3-9.0.3-0~ubuntu24.04.1} date 2025-10-27T23:52:19-0300
; FORMAT={-:-/ absolute / metric / decimal}
; #@! TF.CreationDate,2025-10-27T23:52:19-03:00
; #@! TF.GenerationSoftware,Kicad,Pcbnew,9.0.3-9.0.3-0~ubuntu24.04.1
; #@! TF.FileFunction,Plated,1,2,PTH
FMAT,2
METRIC
; #@! TA.AperFunction,Plated,PTH,ViaDrill
T1C0.300
; #@! TA.AperFunction,Plated,PTH,ComponentDrill
T2C0.800
; #@! TA.AperFunction,Plated,PTH,ComponentDrill
T3C0.900
; #@! TA.AperFunction,Plated,PTH,ComponentDrill
T4C1.000
; #@! TA.AperFunction,Plated,PTH,ComponentDrill
T5C1.100
; #@! TA.AperFunction,Plated,PTH,ComponentDrill
T6C1.300
; #@! TA.AperFunction,Plated,PTH,ComponentDrill
T7C1.520
; #@! TA.AperFunction,Plated,PTH,ComponentDrill
T8C3.000
%
G90
G05
T1
X109.2Y-126.9
X110.55Y-125.9
X110.55Y-135.75
X111.375Y-130.675
X111.85Y-115.35
X112.4Y-133.925
X112.9Y-119.3
X113.425Y-133.25
X114.1Y-132.2
X115.35Y-127.175
X116.625Y-133.625
X118.5Y-122.9
X120.4Y-134.8
X120.875Y-137.125
X121.5Y-123.2
X124.0Y-128.5
X124.8Y-116.8
X125.0Y-128.5
X126.0Y-123.8
X126.8Y-118.6
X128.0Y-125.0
X129.2Y-115.2
X130.7Y-138.35
X136.8Y-141.1
X140.775Y-135.975
X151.2Y-116.275
X155.175Y-94.925
X170.15Y-64.05
X171.5Y-108.1
X177.9Y-96.25
X178.075Y-63.975
X188.625Y-106.55
X199.405Y-114.02
T2
X95.315Y-123.725
X95.32Y-119.05
X100.38Y-80.88
X100.38Y-83.42
X100.38Y-85.96
X100.38Y-88.5
X100.395Y-98.55
X101.625Y-54.95
X101.625Y-59.95
X105.475Y-123.725
X105.48Y-119.05
X106.425Y-54.695
X106.425Y-57.195
X107.6Y-104.89
X107.6Y-115.05
X108.0Y-80.88
X108.0Y-83.42
X108.0Y-85.96
X108.0Y-88.5
X110.555Y-98.55
X112.87Y-59.6
X113.545Y-98.525
X115.78Y-65.945
X115.78Y-73.565
X118.32Y-65.945
X118.32Y-73.565
X120.86Y-65.945
X120.86Y-73.565
X123.03Y-59.6
X123.4Y-65.945
X123.4Y-73.565
X123.705Y-98.525
X125.94Y-65.945
X125.94Y-73.565
X128.48Y-65.945
X128.48Y-73.565
X130.75Y-90.75
X130.75Y-95.75
X130.825Y-98.64
X130.825Y-108.8
X131.02Y-65.945
X131.02Y-73.565
X132.9Y-127.82
X132.9Y-137.98
X137.55Y-90.75
X137.55Y-95.75
X137.575Y-98.645
X137.575Y-108.805
X140.7Y-132.6
X142.15Y-98.57
X142.15Y-108.73
X142.805Y-64.595
X142.805Y-74.755
X147.925Y-90.95
X147.925Y-93.49
X147.925Y-96.03
X148.455Y-64.325
X148.455Y-69.325
X150.86Y-132.6
X150.955Y-75.325
X150.975Y-80.475
X153.83Y-63.57
X153.83Y-71.19
X154.25Y-132.675
X156.37Y-63.57
X156.37Y-71.19
X156.545Y-114.325
X157.77Y-127.95
X158.91Y-63.57
X158.91Y-71.19
X161.115Y-75.325
X161.135Y-80.475
X161.22Y-122.425
X161.45Y-63.57
X161.45Y-71.19
X164.41Y-132.675
X165.25Y-51.375
X165.25Y-56.375
X166.705Y-114.325
X167.93Y-127.95
X168.175Y-68.695
X168.175Y-78.855
X170.0Y-96.225
X171.38Y-122.425
X173.125Y-68.645
X173.125Y-78.805
X173.15Y-48.57
X173.15Y-51.07
X173.675Y-128.768
X173.675Y-131.268
X175.0Y-96.225
X175.1Y-112.125
X177.22Y-59.475
X179.845Y-129.75
X180.1Y-112.125
X182.345Y-129.75
X187.125Y-129.85
X187.38Y-59.475
X189.355Y-88.47
X189.355Y-93.47
X189.625Y-129.85
X190.875Y-114.64
X190.875Y-124.8
X192.255Y-98.8
X192.255Y-101.34
X192.255Y-103.88
X192.255Y-106.42
X193.725Y-81.51
X193.775Y-76.46
X195.075Y-88.545
X195.195Y-93.02
X195.875Y-114.72
X195.875Y-124.88
X198.725Y-81.51
X198.775Y-76.46
X199.875Y-98.8
X199.875Y-101.34
X199.875Y-103.88
X199.875Y-106.42
X205.235Y-88.545
X205.355Y-93.02
T3
X150.86Y-136.96
X150.86Y-139.5
X160.65Y-136.925
X160.65Y-139.465
X170.075Y-136.925
X170.075Y-139.465
X175.21Y-117.775
X177.75Y-117.775
T4
X102.645Y-132.975
X105.185Y-132.975
X107.725Y-132.975
X110.265Y-132.975
X117.5Y-131.0
X122.5Y-131.0
X202.375Y-111.74
X202.375Y-114.02
X202.375Y-116.3
X202.375Y-123.74
X202.375Y-126.02
X202.375Y-128.3
T5
X102.175Y-104.7
X102.175Y-107.24
X102.175Y-109.78
X113.645Y-51.4
X116.185Y-51.4
X118.725Y-51.4
X130.095Y-51.425
X132.635Y-51.425
X135.175Y-51.425
X202.55Y-76.31
X202.55Y-78.85
X202.55Y-81.39
T6
X146.75Y-52.3
X150.25Y-52.3
T7
X98.1Y-67.22
X98.1Y-72.3
X179.34Y-138.0
X184.42Y-138.0
X184.56Y-51.275
X189.5Y-138.0
X189.64Y-51.275
X203.925Y-61.745
X203.925Y-66.825
T8
X95.825Y-49.1
X95.825Y-139.3
X205.45Y-48.925
X205.5Y-139.5
M30
