%TF.GenerationSoftware,KiCad,Pcbnew,9.0.3-9.0.3-0~ubuntu24.04.1*%
%TF.CreationDate,2025-10-27T23:52:17-03:00*%
%TF.ProjectId,CargadorDeBaterias_rev2,43617267-6164-46f7-9244-654261746572,rev?*%
%TF.SameCoordinates,Original*%
%TF.FileFunction,Legend,Bot*%
%TF.FilePolarity,Positive*%
%FSLAX46Y46*%
G04 Gerber Fmt 4.6, Leading zero omitted, Abs format (unit mm)*
G04 Created by KiCad (PCBNEW 9.0.3-9.0.3-0~ubuntu24.04.1) date 2025-10-27 23:52:17*
%MOMM*%
%LPD*%
G01*
G04 APERTURE LIST*
%ADD10C,0.150000*%
%ADD11C,0.120000*%
G04 APERTURE END LIST*
D10*
X104702800Y-142585839D02*
X104655180Y-142442982D01*
X104655180Y-142442982D02*
X104655180Y-142204887D01*
X104655180Y-142204887D02*
X104702800Y-142109649D01*
X104702800Y-142109649D02*
X104750419Y-142062030D01*
X104750419Y-142062030D02*
X104845657Y-142014411D01*
X104845657Y-142014411D02*
X104940895Y-142014411D01*
X104940895Y-142014411D02*
X105036133Y-142062030D01*
X105036133Y-142062030D02*
X105083752Y-142109649D01*
X105083752Y-142109649D02*
X105131371Y-142204887D01*
X105131371Y-142204887D02*
X105178990Y-142395363D01*
X105178990Y-142395363D02*
X105226609Y-142490601D01*
X105226609Y-142490601D02*
X105274228Y-142538220D01*
X105274228Y-142538220D02*
X105369466Y-142585839D01*
X105369466Y-142585839D02*
X105464704Y-142585839D01*
X105464704Y-142585839D02*
X105559942Y-142538220D01*
X105559942Y-142538220D02*
X105607561Y-142490601D01*
X105607561Y-142490601D02*
X105655180Y-142395363D01*
X105655180Y-142395363D02*
X105655180Y-142157268D01*
X105655180Y-142157268D02*
X105607561Y-142014411D01*
X105655180Y-141681077D02*
X104655180Y-141442982D01*
X104655180Y-141442982D02*
X105369466Y-141252506D01*
X105369466Y-141252506D02*
X104655180Y-141062030D01*
X104655180Y-141062030D02*
X105655180Y-140823935D01*
X104750419Y-139871554D02*
X104702800Y-139919173D01*
X104702800Y-139919173D02*
X104655180Y-140062030D01*
X104655180Y-140062030D02*
X104655180Y-140157268D01*
X104655180Y-140157268D02*
X104702800Y-140300125D01*
X104702800Y-140300125D02*
X104798038Y-140395363D01*
X104798038Y-140395363D02*
X104893276Y-140442982D01*
X104893276Y-140442982D02*
X105083752Y-140490601D01*
X105083752Y-140490601D02*
X105226609Y-140490601D01*
X105226609Y-140490601D02*
X105417085Y-140442982D01*
X105417085Y-140442982D02*
X105512323Y-140395363D01*
X105512323Y-140395363D02*
X105607561Y-140300125D01*
X105607561Y-140300125D02*
X105655180Y-140157268D01*
X105655180Y-140157268D02*
X105655180Y-140062030D01*
X105655180Y-140062030D02*
X105607561Y-139919173D01*
X105607561Y-139919173D02*
X105559942Y-139871554D01*
X104655180Y-138966792D02*
X104655180Y-139442982D01*
X104655180Y-139442982D02*
X105655180Y-139442982D01*
X104655180Y-138633458D02*
X105655180Y-138633458D01*
X104655180Y-138062030D02*
X105226609Y-138490601D01*
X105655180Y-138062030D02*
X105083752Y-138633458D01*
X107302800Y-142585839D02*
X107255180Y-142442982D01*
X107255180Y-142442982D02*
X107255180Y-142204887D01*
X107255180Y-142204887D02*
X107302800Y-142109649D01*
X107302800Y-142109649D02*
X107350419Y-142062030D01*
X107350419Y-142062030D02*
X107445657Y-142014411D01*
X107445657Y-142014411D02*
X107540895Y-142014411D01*
X107540895Y-142014411D02*
X107636133Y-142062030D01*
X107636133Y-142062030D02*
X107683752Y-142109649D01*
X107683752Y-142109649D02*
X107731371Y-142204887D01*
X107731371Y-142204887D02*
X107778990Y-142395363D01*
X107778990Y-142395363D02*
X107826609Y-142490601D01*
X107826609Y-142490601D02*
X107874228Y-142538220D01*
X107874228Y-142538220D02*
X107969466Y-142585839D01*
X107969466Y-142585839D02*
X108064704Y-142585839D01*
X108064704Y-142585839D02*
X108159942Y-142538220D01*
X108159942Y-142538220D02*
X108207561Y-142490601D01*
X108207561Y-142490601D02*
X108255180Y-142395363D01*
X108255180Y-142395363D02*
X108255180Y-142157268D01*
X108255180Y-142157268D02*
X108207561Y-142014411D01*
X108255180Y-141681077D02*
X107255180Y-141442982D01*
X107255180Y-141442982D02*
X107969466Y-141252506D01*
X107969466Y-141252506D02*
X107255180Y-141062030D01*
X107255180Y-141062030D02*
X108255180Y-140823935D01*
X107255180Y-140442982D02*
X108255180Y-140442982D01*
X108255180Y-140442982D02*
X108255180Y-140204887D01*
X108255180Y-140204887D02*
X108207561Y-140062030D01*
X108207561Y-140062030D02*
X108112323Y-139966792D01*
X108112323Y-139966792D02*
X108017085Y-139919173D01*
X108017085Y-139919173D02*
X107826609Y-139871554D01*
X107826609Y-139871554D02*
X107683752Y-139871554D01*
X107683752Y-139871554D02*
X107493276Y-139919173D01*
X107493276Y-139919173D02*
X107398038Y-139966792D01*
X107398038Y-139966792D02*
X107302800Y-140062030D01*
X107302800Y-140062030D02*
X107255180Y-140204887D01*
X107255180Y-140204887D02*
X107255180Y-140442982D01*
X107255180Y-139442982D02*
X108255180Y-139442982D01*
X108255180Y-138776316D02*
X108255180Y-138585840D01*
X108255180Y-138585840D02*
X108207561Y-138490602D01*
X108207561Y-138490602D02*
X108112323Y-138395364D01*
X108112323Y-138395364D02*
X107921847Y-138347745D01*
X107921847Y-138347745D02*
X107588514Y-138347745D01*
X107588514Y-138347745D02*
X107398038Y-138395364D01*
X107398038Y-138395364D02*
X107302800Y-138490602D01*
X107302800Y-138490602D02*
X107255180Y-138585840D01*
X107255180Y-138585840D02*
X107255180Y-138776316D01*
X107255180Y-138776316D02*
X107302800Y-138871554D01*
X107302800Y-138871554D02*
X107398038Y-138966792D01*
X107398038Y-138966792D02*
X107588514Y-139014411D01*
X107588514Y-139014411D02*
X107921847Y-139014411D01*
X107921847Y-139014411D02*
X108112323Y-138966792D01*
X108112323Y-138966792D02*
X108207561Y-138871554D01*
X108207561Y-138871554D02*
X108255180Y-138776316D01*
X110730180Y-142508458D02*
X110730180Y-141889411D01*
X110730180Y-141889411D02*
X110349228Y-142222744D01*
X110349228Y-142222744D02*
X110349228Y-142079887D01*
X110349228Y-142079887D02*
X110301609Y-141984649D01*
X110301609Y-141984649D02*
X110253990Y-141937030D01*
X110253990Y-141937030D02*
X110158752Y-141889411D01*
X110158752Y-141889411D02*
X109920657Y-141889411D01*
X109920657Y-141889411D02*
X109825419Y-141937030D01*
X109825419Y-141937030D02*
X109777800Y-141984649D01*
X109777800Y-141984649D02*
X109730180Y-142079887D01*
X109730180Y-142079887D02*
X109730180Y-142365601D01*
X109730180Y-142365601D02*
X109777800Y-142460839D01*
X109777800Y-142460839D02*
X109825419Y-142508458D01*
X109825419Y-141460839D02*
X109777800Y-141413220D01*
X109777800Y-141413220D02*
X109730180Y-141460839D01*
X109730180Y-141460839D02*
X109777800Y-141508458D01*
X109777800Y-141508458D02*
X109825419Y-141460839D01*
X109825419Y-141460839D02*
X109730180Y-141460839D01*
X110730180Y-141079887D02*
X110730180Y-140460840D01*
X110730180Y-140460840D02*
X110349228Y-140794173D01*
X110349228Y-140794173D02*
X110349228Y-140651316D01*
X110349228Y-140651316D02*
X110301609Y-140556078D01*
X110301609Y-140556078D02*
X110253990Y-140508459D01*
X110253990Y-140508459D02*
X110158752Y-140460840D01*
X110158752Y-140460840D02*
X109920657Y-140460840D01*
X109920657Y-140460840D02*
X109825419Y-140508459D01*
X109825419Y-140508459D02*
X109777800Y-140556078D01*
X109777800Y-140556078D02*
X109730180Y-140651316D01*
X109730180Y-140651316D02*
X109730180Y-140937030D01*
X109730180Y-140937030D02*
X109777800Y-141032268D01*
X109777800Y-141032268D02*
X109825419Y-141079887D01*
X110730180Y-140175125D02*
X109730180Y-139841792D01*
X109730180Y-139841792D02*
X110730180Y-139508459D01*
X103082561Y-141364411D02*
X103130180Y-141459649D01*
X103130180Y-141459649D02*
X103130180Y-141602506D01*
X103130180Y-141602506D02*
X103082561Y-141745363D01*
X103082561Y-141745363D02*
X102987323Y-141840601D01*
X102987323Y-141840601D02*
X102892085Y-141888220D01*
X102892085Y-141888220D02*
X102701609Y-141935839D01*
X102701609Y-141935839D02*
X102558752Y-141935839D01*
X102558752Y-141935839D02*
X102368276Y-141888220D01*
X102368276Y-141888220D02*
X102273038Y-141840601D01*
X102273038Y-141840601D02*
X102177800Y-141745363D01*
X102177800Y-141745363D02*
X102130180Y-141602506D01*
X102130180Y-141602506D02*
X102130180Y-141507268D01*
X102130180Y-141507268D02*
X102177800Y-141364411D01*
X102177800Y-141364411D02*
X102225419Y-141316792D01*
X102225419Y-141316792D02*
X102558752Y-141316792D01*
X102558752Y-141316792D02*
X102558752Y-141507268D01*
X102130180Y-140888220D02*
X103130180Y-140888220D01*
X103130180Y-140888220D02*
X102130180Y-140316792D01*
X102130180Y-140316792D02*
X103130180Y-140316792D01*
X102130180Y-139840601D02*
X103130180Y-139840601D01*
X103130180Y-139840601D02*
X103130180Y-139602506D01*
X103130180Y-139602506D02*
X103082561Y-139459649D01*
X103082561Y-139459649D02*
X102987323Y-139364411D01*
X102987323Y-139364411D02*
X102892085Y-139316792D01*
X102892085Y-139316792D02*
X102701609Y-139269173D01*
X102701609Y-139269173D02*
X102558752Y-139269173D01*
X102558752Y-139269173D02*
X102368276Y-139316792D01*
X102368276Y-139316792D02*
X102273038Y-139364411D01*
X102273038Y-139364411D02*
X102177800Y-139459649D01*
X102177800Y-139459649D02*
X102130180Y-139602506D01*
X102130180Y-139602506D02*
X102130180Y-139840601D01*
X126759580Y-130530951D02*
X126807200Y-130483332D01*
X126807200Y-130483332D02*
X126854819Y-130340475D01*
X126854819Y-130340475D02*
X126854819Y-130245237D01*
X126854819Y-130245237D02*
X126807200Y-130102380D01*
X126807200Y-130102380D02*
X126711961Y-130007142D01*
X126711961Y-130007142D02*
X126616723Y-129959523D01*
X126616723Y-129959523D02*
X126426247Y-129911904D01*
X126426247Y-129911904D02*
X126283390Y-129911904D01*
X126283390Y-129911904D02*
X126092914Y-129959523D01*
X126092914Y-129959523D02*
X125997676Y-130007142D01*
X125997676Y-130007142D02*
X125902438Y-130102380D01*
X125902438Y-130102380D02*
X125854819Y-130245237D01*
X125854819Y-130245237D02*
X125854819Y-130340475D01*
X125854819Y-130340475D02*
X125902438Y-130483332D01*
X125902438Y-130483332D02*
X125950057Y-130530951D01*
X126854819Y-131483332D02*
X126854819Y-130911904D01*
X126854819Y-131197618D02*
X125854819Y-131197618D01*
X125854819Y-131197618D02*
X125997676Y-131102380D01*
X125997676Y-131102380D02*
X126092914Y-131007142D01*
X126092914Y-131007142D02*
X126140533Y-130911904D01*
X126283390Y-132054761D02*
X126235771Y-131959523D01*
X126235771Y-131959523D02*
X126188152Y-131911904D01*
X126188152Y-131911904D02*
X126092914Y-131864285D01*
X126092914Y-131864285D02*
X126045295Y-131864285D01*
X126045295Y-131864285D02*
X125950057Y-131911904D01*
X125950057Y-131911904D02*
X125902438Y-131959523D01*
X125902438Y-131959523D02*
X125854819Y-132054761D01*
X125854819Y-132054761D02*
X125854819Y-132245237D01*
X125854819Y-132245237D02*
X125902438Y-132340475D01*
X125902438Y-132340475D02*
X125950057Y-132388094D01*
X125950057Y-132388094D02*
X126045295Y-132435713D01*
X126045295Y-132435713D02*
X126092914Y-132435713D01*
X126092914Y-132435713D02*
X126188152Y-132388094D01*
X126188152Y-132388094D02*
X126235771Y-132340475D01*
X126235771Y-132340475D02*
X126283390Y-132245237D01*
X126283390Y-132245237D02*
X126283390Y-132054761D01*
X126283390Y-132054761D02*
X126331009Y-131959523D01*
X126331009Y-131959523D02*
X126378628Y-131911904D01*
X126378628Y-131911904D02*
X126473866Y-131864285D01*
X126473866Y-131864285D02*
X126664342Y-131864285D01*
X126664342Y-131864285D02*
X126759580Y-131911904D01*
X126759580Y-131911904D02*
X126807200Y-131959523D01*
X126807200Y-131959523D02*
X126854819Y-132054761D01*
X126854819Y-132054761D02*
X126854819Y-132245237D01*
X126854819Y-132245237D02*
X126807200Y-132340475D01*
X126807200Y-132340475D02*
X126759580Y-132388094D01*
X126759580Y-132388094D02*
X126664342Y-132435713D01*
X126664342Y-132435713D02*
X126473866Y-132435713D01*
X126473866Y-132435713D02*
X126378628Y-132388094D01*
X126378628Y-132388094D02*
X126331009Y-132340475D01*
X126331009Y-132340475D02*
X126283390Y-132245237D01*
X125629580Y-136019642D02*
X125677200Y-135972023D01*
X125677200Y-135972023D02*
X125724819Y-135829166D01*
X125724819Y-135829166D02*
X125724819Y-135733928D01*
X125724819Y-135733928D02*
X125677200Y-135591071D01*
X125677200Y-135591071D02*
X125581961Y-135495833D01*
X125581961Y-135495833D02*
X125486723Y-135448214D01*
X125486723Y-135448214D02*
X125296247Y-135400595D01*
X125296247Y-135400595D02*
X125153390Y-135400595D01*
X125153390Y-135400595D02*
X124962914Y-135448214D01*
X124962914Y-135448214D02*
X124867676Y-135495833D01*
X124867676Y-135495833D02*
X124772438Y-135591071D01*
X124772438Y-135591071D02*
X124724819Y-135733928D01*
X124724819Y-135733928D02*
X124724819Y-135829166D01*
X124724819Y-135829166D02*
X124772438Y-135972023D01*
X124772438Y-135972023D02*
X124820057Y-136019642D01*
X125724819Y-136972023D02*
X125724819Y-136400595D01*
X125724819Y-136686309D02*
X124724819Y-136686309D01*
X124724819Y-136686309D02*
X124867676Y-136591071D01*
X124867676Y-136591071D02*
X124962914Y-136495833D01*
X124962914Y-136495833D02*
X125010533Y-136400595D01*
X125724819Y-137448214D02*
X125724819Y-137638690D01*
X125724819Y-137638690D02*
X125677200Y-137733928D01*
X125677200Y-137733928D02*
X125629580Y-137781547D01*
X125629580Y-137781547D02*
X125486723Y-137876785D01*
X125486723Y-137876785D02*
X125296247Y-137924404D01*
X125296247Y-137924404D02*
X124915295Y-137924404D01*
X124915295Y-137924404D02*
X124820057Y-137876785D01*
X124820057Y-137876785D02*
X124772438Y-137829166D01*
X124772438Y-137829166D02*
X124724819Y-137733928D01*
X124724819Y-137733928D02*
X124724819Y-137543452D01*
X124724819Y-137543452D02*
X124772438Y-137448214D01*
X124772438Y-137448214D02*
X124820057Y-137400595D01*
X124820057Y-137400595D02*
X124915295Y-137352976D01*
X124915295Y-137352976D02*
X125153390Y-137352976D01*
X125153390Y-137352976D02*
X125248628Y-137400595D01*
X125248628Y-137400595D02*
X125296247Y-137448214D01*
X125296247Y-137448214D02*
X125343866Y-137543452D01*
X125343866Y-137543452D02*
X125343866Y-137733928D01*
X125343866Y-137733928D02*
X125296247Y-137829166D01*
X125296247Y-137829166D02*
X125248628Y-137876785D01*
X125248628Y-137876785D02*
X125153390Y-137924404D01*
X127959580Y-130482142D02*
X128007200Y-130434523D01*
X128007200Y-130434523D02*
X128054819Y-130291666D01*
X128054819Y-130291666D02*
X128054819Y-130196428D01*
X128054819Y-130196428D02*
X128007200Y-130053571D01*
X128007200Y-130053571D02*
X127911961Y-129958333D01*
X127911961Y-129958333D02*
X127816723Y-129910714D01*
X127816723Y-129910714D02*
X127626247Y-129863095D01*
X127626247Y-129863095D02*
X127483390Y-129863095D01*
X127483390Y-129863095D02*
X127292914Y-129910714D01*
X127292914Y-129910714D02*
X127197676Y-129958333D01*
X127197676Y-129958333D02*
X127102438Y-130053571D01*
X127102438Y-130053571D02*
X127054819Y-130196428D01*
X127054819Y-130196428D02*
X127054819Y-130291666D01*
X127054819Y-130291666D02*
X127102438Y-130434523D01*
X127102438Y-130434523D02*
X127150057Y-130482142D01*
X128054819Y-131434523D02*
X128054819Y-130863095D01*
X128054819Y-131148809D02*
X127054819Y-131148809D01*
X127054819Y-131148809D02*
X127197676Y-131053571D01*
X127197676Y-131053571D02*
X127292914Y-130958333D01*
X127292914Y-130958333D02*
X127340533Y-130863095D01*
X127054819Y-131767857D02*
X127054819Y-132434523D01*
X127054819Y-132434523D02*
X128054819Y-132005952D01*
X130989580Y-135882142D02*
X131037200Y-135834523D01*
X131037200Y-135834523D02*
X131084819Y-135691666D01*
X131084819Y-135691666D02*
X131084819Y-135596428D01*
X131084819Y-135596428D02*
X131037200Y-135453571D01*
X131037200Y-135453571D02*
X130941961Y-135358333D01*
X130941961Y-135358333D02*
X130846723Y-135310714D01*
X130846723Y-135310714D02*
X130656247Y-135263095D01*
X130656247Y-135263095D02*
X130513390Y-135263095D01*
X130513390Y-135263095D02*
X130322914Y-135310714D01*
X130322914Y-135310714D02*
X130227676Y-135358333D01*
X130227676Y-135358333D02*
X130132438Y-135453571D01*
X130132438Y-135453571D02*
X130084819Y-135596428D01*
X130084819Y-135596428D02*
X130084819Y-135691666D01*
X130084819Y-135691666D02*
X130132438Y-135834523D01*
X130132438Y-135834523D02*
X130180057Y-135882142D01*
X130180057Y-136263095D02*
X130132438Y-136310714D01*
X130132438Y-136310714D02*
X130084819Y-136405952D01*
X130084819Y-136405952D02*
X130084819Y-136644047D01*
X130084819Y-136644047D02*
X130132438Y-136739285D01*
X130132438Y-136739285D02*
X130180057Y-136786904D01*
X130180057Y-136786904D02*
X130275295Y-136834523D01*
X130275295Y-136834523D02*
X130370533Y-136834523D01*
X130370533Y-136834523D02*
X130513390Y-136786904D01*
X130513390Y-136786904D02*
X131084819Y-136215476D01*
X131084819Y-136215476D02*
X131084819Y-136834523D01*
X130084819Y-137453571D02*
X130084819Y-137548809D01*
X130084819Y-137548809D02*
X130132438Y-137644047D01*
X130132438Y-137644047D02*
X130180057Y-137691666D01*
X130180057Y-137691666D02*
X130275295Y-137739285D01*
X130275295Y-137739285D02*
X130465771Y-137786904D01*
X130465771Y-137786904D02*
X130703866Y-137786904D01*
X130703866Y-137786904D02*
X130894342Y-137739285D01*
X130894342Y-137739285D02*
X130989580Y-137691666D01*
X130989580Y-137691666D02*
X131037200Y-137644047D01*
X131037200Y-137644047D02*
X131084819Y-137548809D01*
X131084819Y-137548809D02*
X131084819Y-137453571D01*
X131084819Y-137453571D02*
X131037200Y-137358333D01*
X131037200Y-137358333D02*
X130989580Y-137310714D01*
X130989580Y-137310714D02*
X130894342Y-137263095D01*
X130894342Y-137263095D02*
X130703866Y-137215476D01*
X130703866Y-137215476D02*
X130465771Y-137215476D01*
X130465771Y-137215476D02*
X130275295Y-137263095D01*
X130275295Y-137263095D02*
X130180057Y-137310714D01*
X130180057Y-137310714D02*
X130132438Y-137358333D01*
X130132438Y-137358333D02*
X130084819Y-137453571D01*
D11*
%TO.C,C18*%
X124490000Y-131283767D02*
X124490000Y-130991233D01*
X125510000Y-131283767D02*
X125510000Y-130991233D01*
%TO.C,C19*%
X126190000Y-136516233D02*
X126190000Y-136808767D01*
X127210000Y-136516233D02*
X127210000Y-136808767D01*
%TO.C,C17*%
X128390000Y-130991233D02*
X128390000Y-131283767D01*
X129410000Y-130991233D02*
X129410000Y-131283767D01*
%TO.C,C20*%
X128690000Y-136671267D02*
X128690000Y-136378733D01*
X129710000Y-136671267D02*
X129710000Y-136378733D01*
%TD*%
M02*
